<svg xmlns="http://www.w3.org/2000/svg" width="23.256" height="18.607" viewBox="0 0 23.256 18.607">
  <path id="Icon_awesome-user-cog" data-name="Icon awesome-user-cog" d="M22.187,13.566a4.263,4.263,0,0,0,0-1.548l.938-.541a.263.263,0,0,0,.12-.309,5.454,5.454,0,0,0-1.207-2.086.265.265,0,0,0-.327-.051l-.938.541A4.267,4.267,0,0,0,19.432,8.8V7.715a.265.265,0,0,0-.207-.258,5.483,5.483,0,0,0-2.406,0,.265.265,0,0,0-.207.258V8.8a4.267,4.267,0,0,0-1.341.774l-.938-.541a.266.266,0,0,0-.327.051A5.454,5.454,0,0,0,12.8,11.168a.268.268,0,0,0,.12.309l.938.541a4.263,4.263,0,0,0,0,1.548l-.938.541a.263.263,0,0,0-.12.309A5.481,5.481,0,0,0,14.006,16.5a.265.265,0,0,0,.327.051l.938-.541a4.267,4.267,0,0,0,1.341.774v1.083a.265.265,0,0,0,.207.258,5.483,5.483,0,0,0,2.406,0,.265.265,0,0,0,.207-.258V16.786a4.267,4.267,0,0,0,1.341-.774l.938.541a.266.266,0,0,0,.327-.051,5.454,5.454,0,0,0,1.207-2.086.268.268,0,0,0-.12-.309Zm-4.161.988a1.763,1.763,0,1,1,1.763-1.763A1.764,1.764,0,0,1,18.026,14.555ZM8.141,9.3A4.652,4.652,0,1,0,3.489,4.652,4.651,4.651,0,0,0,8.141,9.3Zm7.312,8.231c-.084-.044-.167-.094-.247-.142l-.287.167a1.426,1.426,0,0,1-1.763-.265,6.627,6.627,0,0,1-1.461-2.529,1.421,1.421,0,0,1,.651-1.661l.287-.167q-.005-.142,0-.283l-.287-.167a1.42,1.42,0,0,1-.651-1.661c.033-.105.08-.211.116-.316-.138-.011-.273-.044-.414-.044H10.79a6.326,6.326,0,0,1-5.3,0H4.884A4.886,4.886,0,0,0,0,15.351v1.512a1.745,1.745,0,0,0,1.744,1.744H14.537a1.742,1.742,0,0,0,.988-.309,1.415,1.415,0,0,1-.073-.429Z"/>
</svg>
