<svg xmlns="http://www.w3.org/2000/svg" width="28" height="29.311" viewBox="0 0 31.686 29.311">
  <g id="Group_4" data-name="Group 4" transform="translate(-13.56 -342.865)">
    <path id="Icon_feather-message-circle" data-name="Icon feather-message-circle" d="M34.186,17.4A11.893,11.893,0,0,1,32.7,23.162a14.19,14.19,0,0,1-12.534,7.131A14.81,14.81,0,0,1,13.9,28.928L4.5,31.811l3.134-8.648A11.893,11.893,0,0,1,6.149,17.4,12.833,12.833,0,0,1,13.9,5.866,14.81,14.81,0,0,1,20.168,4.5h.825c7.118.361,12.8,5.59,13.194,12.138Z" transform="translate(10.06 339.365)"  stroke="#fff" stroke-linecap="round" stroke-linejoin="round" stroke-width="2"/>
    <text id="BIDS" transform="translate(21.369 360.52)"  font-size="9" font-family="Poppins-Bold, Poppins" font-weight="700"><tspan x="-2" y="0">BIDS</tspan></text>
  </g>
</svg>
