<svg xmlns="http://www.w3.org/2000/svg" width="18.983" height="17.75" viewBox="0 0 18.983 17.75">
  <g id="Group_902" data-name="Group 902" transform="translate(-296.296 -530.029)">
    <path id="Icon_map-car-dealer" data-name="Icon map-car-dealer"  d="M14.978,11.4h-.21L12.433,7.172a.712.712,0,0,0-.564-.332H4.786a.712.712,0,0,0-.564.332L1.887,11.4h-.21c-.418,0-.958.342-.958.76v3.8c0,.418.539.76.958.76H2.24v1.14A1.33,1.33,0,0,0,3.578,19h.38c.627,0,.942-.513.942-1.14V16.72h6.46v1.14A1.329,1.329,0,0,0,12.7,19h.38c.627,0,.942-.513.942-1.14V16.72h.958c.418,0,.562-.342.562-.76v-3.8c0-.418-.145-.76-.562-.76ZM3.008,14.44a.95.95,0,1,1,.95-.95A.95.95,0,0,1,3.008,14.44Zm.76-3.04,1.54-3.08a.674.674,0,0,1,.55-.34H10.8a.674.674,0,0,1,.55.34l1.54,3.08H3.768Zm9.88,3.04a.95.95,0,1,1,.95-.95A.95.95,0,0,1,13.648,14.44Z" transform="translate(295.576 528.779)" fill="#4F9AD6"/>
    <g id="Icon_feather-plus" data-name="Icon feather-plus" transform="translate(301.984 523.279)" fill="#4F9AD6">
      <path id="Path_14" data-name="Path 14" d="M18,7.5v5.045" transform="translate(-7.978 0)" fill="#4F9AD6" stroke="#4F9AD6" stroke-linecap="round" stroke-linejoin="round" stroke-width="1.5"/>
      <path id="Path_15" data-name="Path 15" d="M7.5,18h5.045" transform="translate(0 -7.978)" fill="#4F9AD6" stroke="#4F9AD6" stroke-linecap="round" stroke-linejoin="round" stroke-width="1.5"/>
    </g>
  </g>
</svg>
