<svg xmlns="http://www.w3.org/2000/svg" width="24.256" height="25.277" viewBox="0 0 24.256 25.277">
  <path id="Icon_map-car-dealer" data-name="Icon map-car-dealer" d="M24.371,6.007a6.7,6.7,0,0,0-1.979-.658l-.945-.126V2.939l.484-.008c.453.23,1.107.607,1.14,1.113h1.822a2.935,2.935,0,0,0-1.485-2.156,3.631,3.631,0,0,0-1.961-.624V0H20.436V1.225a2.547,2.547,0,0,0-1.794.76,2.579,2.579,0,0,0-.863,2.024,2.179,2.179,0,0,0,.865,1.962,4.412,4.412,0,0,0,1.792.662V9.107c-.506-.089-.507-.067-.685-.279s-.219-.74-.278-.74H17.666a2.206,2.206,0,0,0,.958,2.035,2.821,2.821,0,0,0,1.812.56v.944h1.011V10.7a4.427,4.427,0,0,0,2.364-.777,2.819,2.819,0,0,0,1.165-2.064,2.112,2.112,0,0,0-.606-1.852ZM19.94,4.6a.751.751,0,0,1-.407-.727.9.9,0,0,1,.4-.826c.157-.1,0-.179.508-.229V4.809C19.931,4.732,20.051,4.662,19.94,4.6Zm2.2,4.459c-.085.029-.688.053-.688.073V7.024c1.011.087.933.18,1.1.282a.778.778,0,0,1,.4.7,1.059,1.059,0,0,1-.809,1.055Zm-2.447,6.108h-.28L16.3,9.542a.947.947,0,0,0-.75-.442H6.129a.947.947,0,0,0-.75.442L2.273,15.166H1.994c-.557,0-1.274.455-1.274,1.011v5.055c0,.556.717,1.011,1.274,1.011h.748V23.76a1.769,1.769,0,0,0,1.78,1.517h.506c.834,0,1.254-.682,1.254-1.517V22.244h8.594V23.76a1.769,1.769,0,0,0,1.78,1.517h.506c.834,0,1.254-.682,1.254-1.517V22.244h1.274c.556,0,.748-.455.748-1.011V16.177c0-.556-.193-1.011-.748-1.011ZM3.763,19.211a1.264,1.264,0,1,1,1.264-1.264A1.264,1.264,0,0,1,3.763,19.211Zm1.011-4.044,2.049-4.1a.9.9,0,0,1,.732-.452h6.572a.9.9,0,0,1,.732.452l2.049,4.1H4.774Zm13.144,4.044a1.264,1.264,0,1,1,1.264-1.264A1.264,1.264,0,0,1,17.918,19.211Z" transform="translate(-0.72)" />
</svg>
